#!OML:ASF F:\VICON\USERDATA\INSTALL\rory3\rory3.ASF
:FULLY-SPECIFIED
:DEGREES
2465
root 1.06063 16.5146 -0.965432 -3.55678 -37.2126 -8.07025
lowerback 3.87583 -5.70237 -5.26258
upperback 7.02287 -7.66065 -2.14957
thorax 5.5492 -4.0716 0.561066
lowerneck -10.1044 -10.4909 -16.8534
upperneck 30.4855 -16.4191 12.7598
head 14.8094 -7.95694 5.19822
rclavicle -5.66536e-014 1.27222e-014
rhumerus 52.7675 -19.3315 -24.3618
rradius 76.7769
rwrist 15.8665
rhand 15.3794 22.4959
rfingers 7.12502
rthumb 40.2087 -2.66685
lclavicle -5.66536e-014 1.27222e-014
lhumerus 25.8675 -16.203 62.1571
lradius 59.0643
lwrist -7.98799
lhand 12.1072 24.3792
lfingers 7.12502
lthumb 37.1221 50.412
rfemur -13.2271 16.3019 24.341
rtibia 33.6
rfoot -20.8839 20.1355
rtoes -9.81295
lfemur -5.36071 12.9005 -12.0224
ltibia 44.7105
lfoot -30.693 13.7085
ltoes -10.7044
2466
root 1.04508 16.5222 -0.97272 -3.45027 -36.9338 -8.19622
lowerback 3.7217 -5.64915 -5.18665
upperback 7.04757 -7.57501 -2.21021
thorax 5.63835 -4.02376 0.441569
lowerneck -10.1445 -10.4574 -16.6217
upperneck 30.4912 -16.4362 12.82
head 14.805 -7.93098 5.18151
rclavicle 5.52621e-014 -1.43125e-014
rhumerus 52.6858 -19.0992 -24.5293
rradius 76.8121
rwrist 16.1055
rhand 15.3959 22.4852
rfingers 7.12502
rthumb 40.2242 -2.67278
lclavicle 5.52621e-014 -1.43125e-014
lhumerus 26.3441 -16.343 61.4553
lradius 59.4717
lwrist -7.5662
lhand 11.8674 24.5677
lfingers 7.12502
lthumb 36.8953 50.6591
rfemur -13.1178 16.2125 24.503
rtibia 33.3756
rfoot -20.7129 19.8131
rtoes -11.0557
lfemur -5.38397 12.7255 -11.8522
ltibia 44.5381
lfoot -30.6595 13.4393
ltoes -9.90014
2467
root 1.02118 16.5355 -0.974864 -3.53009 -36.6306 -8.03127
lowerback 3.47053 -5.52945 -5.43241
upperback 7.05516 -7.39427 -2.26978
thorax 5.80535 -3.94531 0.487626
lowerneck -10.1375 -10.469 -16.3277
upperneck 30.5084 -16.502 12.7617
head 14.7838 -7.93253 5.09597
rclavicle -6.04305e-014 -2.22639e-014
rhumerus 52.4398 -18.7603 -24.4687
rradius 76.9474
rwrist 16.1498
rhand 15.5492 22.1479
rfingers 7.12502
rthumb 40.3684 -2.96599
lclavicle -6.04305e-014 -2.22639e-014
lhumerus 26.9503 -16.6289 60.7483
lradius 59.8134
lwrist -7.10168
lhand 11.588 24.8633
lfingers 7.12502
lthumb 36.6309 51.0223
rfemur -12.9402 16.1864 24.4173
rtibia 33.1281
rfoot -21.0795 19.5774
rtoes -9.83393
lfemur -5.33014 12.5799 -11.9318
ltibia 44.341
lfoot -30.6332 13.2115
ltoes -9.52511
2468
root 1.00382 16.5493 -0.970131 -3.54907 -36.3356 -7.88998
lowerback 3.21 -5.39318 -5.58465
upperback 7.03748 -7.19178 -2.2782
thorax 5.9425 -3.85196 0.53976
lowerneck -10.1108 -10.4998 -16.0707
upperneck 30.4563 -16.571 12.6913
head 14.7294 -7.93975 5.0094
rclavicle -2.71341e-014 2.70347e-014
rhumerus 52.2388 -18.4635 -24.4209
rradius 76.9612
rwrist 16.2635
rhand 15.6902 22.1165
rfingers 7.12502
rthumb 40.5009 -2.9565
lclavicle -2.71341e-014 2.70347e-014
lhumerus 27.5601 -16.7506 60.1793
lradius 60.2848
lwrist -6.73534
lhand 11.6971 25.1065
lfingers 7.12502
lthumb 36.7342 51.2392
rfemur -12.8012 16.1184 24.3031
rtibia 32.8814
rfoot -20.8123 19.2213
rtoes -11.9289
lfemur -5.30585 12.3553 -12.0652
ltibia 44.1387
lfoot -30.4587 13.3115
ltoes -10.178
2469
root 0.992727 16.5617 -0.968159 -3.29999 -36.0364 -8.14599
lowerback 3.0833 -5.36267 -5.44472
upperback 6.96318 -7.14869 -2.12403
thorax 5.93339 -3.82481 0.617129
lowerneck -10.1022 -10.4196 -15.9237
upperneck 30.3716 -16.4301 12.6096
head 14.6333 -7.86864 4.97923
rclavicle -1.11816e-013 -4.77083e-015
rhumerus 52.3253 -18.0754 -24.5513
rradius 76.8748
rwrist 16.39
rhand 15.7055 22.2537
rfingers 7.12502
rthumb 40.5154 -2.81479
lclavicle -1.11816e-013 -4.77083e-015
lhumerus 27.9617 -16.4049 59.731
lradius 60.8226
lwrist -6.41402
lhand 12.028 25.2924
lfingers 7.12502
lthumb 37.0472 51.3447
rfemur -12.7049 16.064 24.5264
rtibia 32.607
rfoot -21.0076 18.9727
rtoes -11.7838
lfemur -5.3677 12.0644 -11.8665
ltibia 43.9334
lfoot -30.3114 13.3499
ltoes -10.3902
